<svg id="visual" viewBox="0 0 960 300" width="960" height="300" xmlns="http://www.w3.org/2000/svg" xmlns:xlink="http://www.w3.org/1999/xlink" version="1.1"><rect x="0" y="0" width="960" height="300" fill="#06f"></rect><path d="M0 171L13.3 170.7C26.7 170.3 53.3 169.7 80 167.7C106.7 165.7 133.3 162.3 160 162.3C186.7 162.3 213.3 165.7 240 164.3C266.7 163 293.3 157 320 153.2C346.7 149.3 373.3 147.7 400 151.3C426.7 155 453.3 164 480 164.8C506.7 165.7 533.3 158.3 560 157.2C586.7 156 613.3 161 640 161.7C666.7 162.3 693.3 158.7 720 157.5C746.7 156.3 773.3 157.7 800 161.2C826.7 164.7 853.3 170.3 880 170.5C906.7 170.7 933.3 165.3 946.7 162.7L960 160L960 301L946.7 301C933.3 301 906.7 301 880 301C853.3 301 826.7 301 800 301C773.3 301 746.7 301 720 301C693.3 301 666.7 301 640 301C613.3 301 586.7 301 560 301C533.3 301 506.7 301 480 301C453.3 301 426.7 301 400 301C373.3 301 346.7 301 320 301C293.3 301 266.7 301 240 301C213.3 301 186.7 301 160 301C133.3 301 106.7 301 80 301C53.3 301 26.7 301 13.3 301L0 301Z" fill="#fa7268"></path><path d="M0 200L13.3 199.7C26.7 199.3 53.3 198.7 80 197.2C106.7 195.7 133.3 193.3 160 191C186.7 188.7 213.3 186.3 240 184C266.7 181.7 293.3 179.3 320 179.7C346.7 180 373.3 183 400 183.5C426.7 184 453.3 182 480 185C506.7 188 533.3 196 560 199.7C586.7 203.3 613.3 202.7 640 201.2C666.7 199.7 693.3 197.3 720 197.7C746.7 198 773.3 201 800 198.7C826.7 196.3 853.3 188.7 880 184.2C906.7 179.7 933.3 178.3 946.7 177.7L960 177L960 301L946.7 301C933.3 301 906.7 301 880 301C853.3 301 826.7 301 800 301C773.3 301 746.7 301 720 301C693.3 301 666.7 301 640 301C613.3 301 586.7 301 560 301C533.3 301 506.7 301 480 301C453.3 301 426.7 301 400 301C373.3 301 346.7 301 320 301C293.3 301 266.7 301 240 301C213.3 301 186.7 301 160 301C133.3 301 106.7 301 80 301C53.3 301 26.7 301 13.3 301L0 301Z" fill="#eb5967"></path><path d="M0 224L13.3 226.5C26.7 229 53.3 234 80 236.3C106.7 238.7 133.3 238.3 160 238.2C186.7 238 213.3 238 240 234.7C266.7 231.3 293.3 224.7 320 223.8C346.7 223 373.3 228 400 230C426.7 232 453.3 231 480 232C506.7 233 533.3 236 560 237.7C586.7 239.3 613.3 239.7 640 237.7C666.7 235.7 693.3 231.3 720 228.3C746.7 225.3 773.3 223.7 800 221C826.7 218.3 853.3 214.7 880 215.8C906.7 217 933.3 223 946.7 226L960 229L960 301L946.7 301C933.3 301 906.7 301 880 301C853.3 301 826.7 301 800 301C773.3 301 746.7 301 720 301C693.3 301 666.7 301 640 301C613.3 301 586.7 301 560 301C533.3 301 506.7 301 480 301C453.3 301 426.7 301 400 301C373.3 301 346.7 301 320 301C293.3 301 266.7 301 240 301C213.3 301 186.7 301 160 301C133.3 301 106.7 301 80 301C53.3 301 26.7 301 13.3 301L0 301Z" fill="#da3f67"></path><path d="M0 262L13.3 261.7C26.7 261.3 53.3 260.7 80 261.3C106.7 262 133.3 264 160 261.7C186.7 259.3 213.3 252.7 240 251.7C266.7 250.7 293.3 255.3 320 258C346.7 260.7 373.3 261.3 400 261C426.7 260.7 453.3 259.3 480 259.8C506.7 260.3 533.3 262.7 560 263.5C586.7 264.3 613.3 263.7 640 260.8C666.7 258 693.3 253 720 253.3C746.7 253.7 773.3 259.3 800 262.5C826.7 265.7 853.3 266.3 880 263.8C906.7 261.3 933.3 255.7 946.7 252.8L960 250L960 301L946.7 301C933.3 301 906.7 301 880 301C853.3 301 826.7 301 800 301C773.3 301 746.7 301 720 301C693.3 301 666.7 301 640 301C613.3 301 586.7 301 560 301C533.3 301 506.7 301 480 301C453.3 301 426.7 301 400 301C373.3 301 346.7 301 320 301C293.3 301 266.7 301 240 301C213.3 301 186.7 301 160 301C133.3 301 106.7 301 80 301C53.3 301 26.7 301 13.3 301L0 301Z" fill="#c62368"></path></svg>