<svg id="visual" viewBox="0 0 960 300" width="960" height="300" xmlns="http://www.w3.org/2000/svg" xmlns:xlink="http://www.w3.org/1999/xlink" version="1.1"><path d="M0 91L87 91L87 94L175 94L175 139L262 139L262 58L349 58L349 94L436 94L436 76L524 76L524 52L611 52L611 97L698 97L698 64L785 64L785 46L873 46L873 85L960 85L960 139L960 0L960 0L873 0L873 0L785 0L785 0L698 0L698 0L611 0L611 0L524 0L524 0L436 0L436 0L349 0L349 0L262 0L262 0L175 0L175 0L87 0L87 0L0 0Z" fill="#c62368"></path><path d="M0 160L87 160L87 178L175 178L175 166L262 166L262 136L349 136L349 148L436 148L436 124L524 124L524 109L611 109L611 157L698 157L698 112L785 112L785 91L873 91L873 118L960 118L960 169L960 137L960 83L873 83L873 44L785 44L785 62L698 62L698 95L611 95L611 50L524 50L524 74L436 74L436 92L349 92L349 56L262 56L262 137L175 137L175 92L87 92L87 89L0 89Z" fill="#8d317b"></path><path d="M0 196L87 196L87 220L175 220L175 205L262 205L262 172L349 172L349 211L436 211L436 160L524 160L524 163L611 163L611 208L698 208L698 169L785 169L785 127L873 127L873 145L960 145L960 193L960 167L960 116L873 116L873 89L785 89L785 110L698 110L698 155L611 155L611 107L524 107L524 122L436 122L436 146L349 146L349 134L262 134L262 164L175 164L175 176L87 176L87 158L0 158Z" fill="#4d3774"></path><path d="M0 241L87 241L87 244L175 244L175 238L262 238L262 205L349 205L349 238L436 238L436 196L524 196L524 202L611 202L611 244L698 244L698 211L785 211L785 169L873 169L873 187L960 187L960 220L960 191L960 143L873 143L873 125L785 125L785 167L698 167L698 206L611 206L611 161L524 161L524 158L436 158L436 209L349 209L349 170L262 170L262 203L175 203L175 218L87 218L87 194L0 194Z" fill="#133058"></path><path d="M0 301L87 301L87 301L175 301L175 301L262 301L262 301L349 301L349 301L436 301L436 301L524 301L524 301L611 301L611 301L698 301L698 301L785 301L785 301L873 301L873 301L960 301L960 301L960 218L960 185L873 185L873 167L785 167L785 209L698 209L698 242L611 242L611 200L524 200L524 194L436 194L436 236L349 236L349 203L262 203L262 236L175 236L175 242L87 242L87 239L0 239Z" fill="#002233"></path></svg>