<svg id="visual" viewBox="0 0 960 300" width="960" height="300" xmlns="http://www.w3.org/2000/svg" xmlns:xlink="http://www.w3.org/1999/xlink" version="1.1"><rect x="0" y="0" width="960" height="300" fill="#0066ff"></rect><path d="M0 48L22.8 55.2C45.7 62.3 91.3 76.7 137 79.3C182.7 82 228.3 73 274 72.8C319.7 72.7 365.3 81.3 411.2 80C457 78.7 503 67.3 548.8 65.8C594.7 64.3 640.3 72.7 686 73.3C731.7 74 777.3 67 823 61.8C868.7 56.7 914.3 53.3 937.2 51.7L960 50L960 0L937.2 0C914.3 0 868.7 0 823 0C777.3 0 731.7 0 686 0C640.3 0 594.7 0 548.8 0C503 0 457 0 411.2 0C365.3 0 319.7 0 274 0C228.3 0 182.7 0 137 0C91.3 0 45.7 0 22.8 0L0 0Z" fill="#002233" stroke-linecap="round" stroke-linejoin="miter"></path></svg>